<svg xmlns="http://www.w3.org/2000/svg" viewBox="0 0 800 128"><path d="M473.27 51.43c-19.405 0-27.687 8.647-27.688 28.916v18.742c0 20.266 8.283 28.914 27.688 28.914h39.475c19.405 0 27.684-8.65 27.684-28.914V80.346c0-20.27-8.28-28.916-27.684-28.916H473.27m-376.52.75v75.06h15.8V52.18h-15.8m213.46 0v75.06h15.797v-27.074h42c8.16 0 10.37 1.09 10.37 8.762v18.314h15.23v-20.775c0-5.6-1.8-9.763-5.47-12.527 3.402-2.163 6.322-6.128 6.322-13.504V74.85c0-14.355-4.28-22.67-26.17-22.67H310.21m101.86-.001v75.06h15.795V52.18H412.07M0 52.182v75.06h15.8V100.26h42.086c22.938 0 24.652-10.358 24.652-26.166-.003-8.742-2.015-14.423-6.338-17.873-4.448-3.55-10.568-4.04-16.52-4.04H-.001m124.58-.001V66.28h34.646v60.963h15.8V66.28h34.646V52.182h-85.09m96.842 0v75.06h74.205V113.15h-58.4V95.72h55.76V81.625h-55.76V66.28h58.03V52.18l-73.826.001m335.86 0v75.06h15.81V71.42l58.176 55.824h18.4v-75.06h-15.81v55.824l-58.176-55.824h-18.4m-83.07 13.342h37.58c9.357 0 12.836 3.07 12.836 11.318v25.746c0 8.253-3.48 11.318-12.836 11.318h-37.58c-9.354 0-12.836-3.066-12.836-11.318V76.842c0-8.253 3.48-11.318 12.836-11.318m-148.2.754h38.96c13.686 0 13.686 2.438 13.686 6.867v6.248c0 3.786-.842 6.682-11.414 6.682h-41.23l-.001-19.797m-310.2.002h41.705c7.84 0 9.234 1.798 9.234 6.867v6.533c0 3.286-.656 6.492-8.477 6.492H15.802V66.28" fill="#9c9d9d"/><path d="M799.83 34.3l-.374-.602h-.672c-.768 0-1.728.966-2.102 1.382l-.723.8a9.82 9.82 0 0 0-.787.87l-.67.803c-.7.83-1.424 1.686-1.968 2.643-.957 1.667-2.112 3.277-3.427 4.826-11.2 11.71-32.416 19.437-55.043 19.437a96.48 96.48 0 0 1-4.922-.128c-26.496-1.363-46.4-14.272-48.4-31.395-.45-3.87.336-8.032 2.342-12.368.25-.54.59-1.06.966-1.565 3.728-3.533 9.856-5.994 12.22-6.938 5.58-2.23 12.006-3.46 18.093-3.46 5.942 0 11.26 1.2 15.373 3.44 4.384 2.397 6.352 6.163 7.235 8.9.544 1.7.474 3.626-.23 6.058-.03.106-.1.205-.134.307-.896.672-2.022 1.283-3.085 1.853l-.874.474c-6.333 3.478-15.542 7.63-23.466 7.63-1.418 0-2.758-.134-3.984-.406l-.326-.035c-1.14 0-2.758 1.802-3.904 3.408a23.26 23.26 0 0 0-1.555 2.189c-.093.138-.192.272-.282.416-.333.534-1.373 1.802-1.04 2.3.24.358 3.222 1.062 6.515.826l-2.387 10.112-.13.573.714.896h.57c.938 0 2.618-1.894 2.637-1.914l.4-.448c.813-.896 1.734-1.914 2.003-3.066l1.606-6.8c3.85-.768 7.754-2.134 11.418-3.734l5.062 11.923 1.197 2.842c.163.387.285.797.694.877.518.102 2.758-1.286 4.598-2.893 1.05-.854 1.776-1.81 1.27-2.957l-5.81-13.242 2.522-1.418c3.152-1.83 5.824-4.112 7.882-6.618 4.32-4.448 6.627-9.84 6.013-14.768C743.536 4.745 730.9-.001 718.94-.001c-1.1 0-2.218.038-3.318.115-12.166.845-24.413 6.403-31.958 14.502a35.21 35.21 0 0 0-1.274 1.434c-.064.067-.13.13-.195.198-7.1 7.63-10.13 16.7-8.51 25.546 1.84 10.03 9.34 18.75 21.123 24.554 9.312 4.592 20.787 7.014 33.18 7.014 16.74 0 34.368-4.53 47.152-12.122 5.302-3.15 10.134-7.17 14.4-11.853a66.83 66.83 0 0 0 10.189-13.6c.13-.23.48-.845.11-1.488h-.001" fill="#00b0d9"/></svg>